<mxfile host="app.diagrams.net" modified="2023-10-05T18:25:57.039Z" agent="Mozilla/5.0 (Windows NT 10.0; Win64; x64) AppleWebKit/537.36 (KHTML, like Gecko) Chrome/117.0.0.0 Safari/537.36" etag="4ZSJq-zwyQi46wPHssXs" version="22.0.2" type="device">
  <diagram id="qaiLERLcsFXwNnowRdfb" name="Page-1">
    <mxGraphModel dx="1719" dy="-437" grid="1" gridSize="10" guides="1" tooltips="1" connect="1" arrows="1" fold="1" page="1" pageScale="1" pageWidth="827" pageHeight="1169" math="0" shadow="0">
      <root>
        <mxCell id="0" />
        <mxCell id="1" parent="0" />
        <mxCell id="7bdxa6rIC_J7n2Tp7N9m-26" value="" style="whiteSpace=wrap;html=1;aspect=fixed;" vertex="1" parent="1">
          <mxGeometry x="413" y="1320" width="590" height="590" as="geometry" />
        </mxCell>
        <mxCell id="7bdxa6rIC_J7n2Tp7N9m-4" value="Науковець" style="shape=umlActor;verticalLabelPosition=bottom;verticalAlign=top;html=1;outlineConnect=0;" vertex="1" parent="1">
          <mxGeometry x="250" y="1620" width="60" height="90" as="geometry" />
        </mxCell>
        <mxCell id="7bdxa6rIC_J7n2Tp7N9m-5" value="ПП &quot;Air-science-security-information" style="shape=umlActor;verticalLabelPosition=bottom;verticalAlign=top;html=1;outlineConnect=0;" vertex="1" parent="1">
          <mxGeometry x="1140" y="1620" width="60" height="90" as="geometry" />
        </mxCell>
        <mxCell id="7bdxa6rIC_J7n2Tp7N9m-13" value="Вимагає збереження високої якості повітря в робочому середовищі" style="ellipse;whiteSpace=wrap;html=1;" vertex="1" parent="1">
          <mxGeometry x="486" y="1460" width="154" height="90" as="geometry" />
        </mxCell>
        <mxCell id="7bdxa6rIC_J7n2Tp7N9m-14" value="Запускає програмний продукт для моніторингу якості повітря" style="ellipse;whiteSpace=wrap;html=1;" vertex="1" parent="1">
          <mxGeometry x="486" y="1570" width="154" height="90" as="geometry" />
        </mxCell>
        <mxCell id="7bdxa6rIC_J7n2Tp7N9m-16" value="Налаштовує параметри вентиляції та вологості в приміщенні через ПП" style="ellipse;whiteSpace=wrap;html=1;" vertex="1" parent="1">
          <mxGeometry x="486" y="1680" width="154" height="90" as="geometry" />
        </mxCell>
        <mxCell id="7bdxa6rIC_J7n2Tp7N9m-17" value="Отримує попередження про надмірне забруднення повітря і активує аварійне вимкнення." style="ellipse;whiteSpace=wrap;html=1;" vertex="1" parent="1">
          <mxGeometry x="486" y="1790" width="154" height="90" as="geometry" />
        </mxCell>
        <mxCell id="7bdxa6rIC_J7n2Tp7N9m-18" value="Автоматично виявляє забруднення чи шкідливі речовини в повітрі" style="ellipse;whiteSpace=wrap;html=1;" vertex="1" parent="1">
          <mxGeometry x="760" y="1470" width="154" height="90" as="geometry" />
        </mxCell>
        <mxCell id="7bdxa6rIC_J7n2Tp7N9m-19" value="Моніторить рівень вентиляції та вологості та підтримує їх на заданих рівнях" style="ellipse;whiteSpace=wrap;html=1;" vertex="1" parent="1">
          <mxGeometry x="760" y="1580" width="154" height="90" as="geometry" />
        </mxCell>
        <mxCell id="7bdxa6rIC_J7n2Tp7N9m-20" value="Генерує попередження та активує аварійне вимкнення при виявленні надмірного забруднення повітря" style="ellipse;whiteSpace=wrap;html=1;" vertex="1" parent="1">
          <mxGeometry x="760" y="1690" width="154" height="90" as="geometry" />
        </mxCell>
        <mxCell id="7bdxa6rIC_J7n2Tp7N9m-21" value="Надає інтуїтивний інтерфейс для користувача" style="ellipse;whiteSpace=wrap;html=1;" vertex="1" parent="1">
          <mxGeometry x="760" y="1800" width="154" height="90" as="geometry" />
        </mxCell>
        <mxCell id="7bdxa6rIC_J7n2Tp7N9m-24" value="інші програми (Epson\Waste)" style="shape=umlActor;verticalLabelPosition=bottom;verticalAlign=top;html=1;outlineConnect=0;" vertex="1" parent="1">
          <mxGeometry x="230" y="1360" width="60" height="90" as="geometry" />
        </mxCell>
        <mxCell id="7bdxa6rIC_J7n2Tp7N9m-25" value="Порівнює результати ПП та проводить інтелектуанальний аналіз" style="ellipse;whiteSpace=wrap;html=1;" vertex="1" parent="1">
          <mxGeometry x="760" y="1350" width="154" height="90" as="geometry" />
        </mxCell>
        <mxCell id="7bdxa6rIC_J7n2Tp7N9m-29" value="" style="endArrow=classic;html=1;rounded=0;" edge="1" parent="1" source="7bdxa6rIC_J7n2Tp7N9m-5" target="7bdxa6rIC_J7n2Tp7N9m-21">
          <mxGeometry width="50" height="50" relative="1" as="geometry">
            <mxPoint x="1057.5" y="1990" as="sourcePoint" />
            <mxPoint x="1107.5" y="1940" as="targetPoint" />
          </mxGeometry>
        </mxCell>
        <mxCell id="7bdxa6rIC_J7n2Tp7N9m-31" value="" style="endArrow=classic;html=1;rounded=0;" edge="1" parent="1" source="7bdxa6rIC_J7n2Tp7N9m-5" target="7bdxa6rIC_J7n2Tp7N9m-18">
          <mxGeometry width="50" height="50" relative="1" as="geometry">
            <mxPoint x="750" y="1680" as="sourcePoint" />
            <mxPoint x="1040" y="1690" as="targetPoint" />
          </mxGeometry>
        </mxCell>
        <mxCell id="7bdxa6rIC_J7n2Tp7N9m-32" value="" style="endArrow=classic;html=1;rounded=0;" edge="1" parent="1" source="7bdxa6rIC_J7n2Tp7N9m-5" target="7bdxa6rIC_J7n2Tp7N9m-19">
          <mxGeometry width="50" height="50" relative="1" as="geometry">
            <mxPoint x="1130" y="1794" as="sourcePoint" />
            <mxPoint x="885" y="1544" as="targetPoint" />
          </mxGeometry>
        </mxCell>
        <mxCell id="7bdxa6rIC_J7n2Tp7N9m-33" value="" style="endArrow=classic;html=1;rounded=0;entryX=1;entryY=0.5;entryDx=0;entryDy=0;" edge="1" parent="1" target="7bdxa6rIC_J7n2Tp7N9m-20">
          <mxGeometry width="50" height="50" relative="1" as="geometry">
            <mxPoint x="1150" y="1680" as="sourcePoint" />
            <mxPoint x="899" y="1649" as="targetPoint" />
          </mxGeometry>
        </mxCell>
        <mxCell id="7bdxa6rIC_J7n2Tp7N9m-34" value="" style="endArrow=classic;html=1;rounded=0;" edge="1" parent="1" target="7bdxa6rIC_J7n2Tp7N9m-25">
          <mxGeometry width="50" height="50" relative="1" as="geometry">
            <mxPoint x="1140" y="1640" as="sourcePoint" />
            <mxPoint x="885" y="1544" as="targetPoint" />
          </mxGeometry>
        </mxCell>
        <mxCell id="7bdxa6rIC_J7n2Tp7N9m-35" value="Надає результати свого аналізу" style="ellipse;whiteSpace=wrap;html=1;" vertex="1" parent="1">
          <mxGeometry x="486" y="1350" width="154" height="90" as="geometry" />
        </mxCell>
        <mxCell id="7bdxa6rIC_J7n2Tp7N9m-36" value="" style="endArrow=open;endSize=12;dashed=1;html=1;rounded=0;entryX=1;entryY=0.5;entryDx=0;entryDy=0;exitX=0;exitY=0.5;exitDx=0;exitDy=0;" edge="1" parent="1" source="7bdxa6rIC_J7n2Tp7N9m-25" target="7bdxa6rIC_J7n2Tp7N9m-35">
          <mxGeometry width="160" relative="1" as="geometry">
            <mxPoint x="690" y="1640" as="sourcePoint" />
            <mxPoint x="850" y="1640" as="targetPoint" />
          </mxGeometry>
        </mxCell>
        <mxCell id="7bdxa6rIC_J7n2Tp7N9m-37" value="&amp;lt;&amp;lt;include&amp;gt;&amp;gt;" style="edgeLabel;html=1;align=center;verticalAlign=middle;resizable=0;points=[];" vertex="1" connectable="0" parent="7bdxa6rIC_J7n2Tp7N9m-36">
          <mxGeometry x="0.0085" y="2" relative="1" as="geometry">
            <mxPoint y="-2" as="offset" />
          </mxGeometry>
        </mxCell>
        <mxCell id="7bdxa6rIC_J7n2Tp7N9m-38" value="" style="endArrow=classic;html=1;rounded=0;entryX=0;entryY=0.5;entryDx=0;entryDy=0;" edge="1" parent="1" source="7bdxa6rIC_J7n2Tp7N9m-24" target="7bdxa6rIC_J7n2Tp7N9m-35">
          <mxGeometry width="50" height="50" relative="1" as="geometry">
            <mxPoint x="590" y="1660" as="sourcePoint" />
            <mxPoint x="374" y="1590" as="targetPoint" />
          </mxGeometry>
        </mxCell>
        <mxCell id="7bdxa6rIC_J7n2Tp7N9m-40" value="" style="endArrow=classic;html=1;rounded=0;entryX=0;entryY=0.5;entryDx=0;entryDy=0;" edge="1" parent="1" source="7bdxa6rIC_J7n2Tp7N9m-4" target="7bdxa6rIC_J7n2Tp7N9m-14">
          <mxGeometry width="50" height="50" relative="1" as="geometry">
            <mxPoint x="360" y="1753" as="sourcePoint" />
            <mxPoint x="596" y="1698" as="targetPoint" />
          </mxGeometry>
        </mxCell>
        <mxCell id="7bdxa6rIC_J7n2Tp7N9m-41" value="" style="endArrow=classic;html=1;rounded=0;entryX=0;entryY=0.5;entryDx=0;entryDy=0;" edge="1" parent="1" source="7bdxa6rIC_J7n2Tp7N9m-4" target="7bdxa6rIC_J7n2Tp7N9m-16">
          <mxGeometry width="50" height="50" relative="1" as="geometry">
            <mxPoint x="320" y="1666" as="sourcePoint" />
            <mxPoint x="496" y="1615" as="targetPoint" />
          </mxGeometry>
        </mxCell>
        <mxCell id="7bdxa6rIC_J7n2Tp7N9m-42" value="" style="endArrow=classic;html=1;rounded=0;entryX=0;entryY=0.5;entryDx=0;entryDy=0;" edge="1" parent="1" source="7bdxa6rIC_J7n2Tp7N9m-4" target="7bdxa6rIC_J7n2Tp7N9m-17">
          <mxGeometry width="50" height="50" relative="1" as="geometry">
            <mxPoint x="320" y="1681" as="sourcePoint" />
            <mxPoint x="496" y="1718" as="targetPoint" />
          </mxGeometry>
        </mxCell>
        <mxCell id="7bdxa6rIC_J7n2Tp7N9m-43" value="" style="endArrow=classic;html=1;rounded=0;entryX=0;entryY=0.5;entryDx=0;entryDy=0;exitX=1;exitY=0.3333333333333333;exitDx=0;exitDy=0;exitPerimeter=0;" edge="1" parent="1" source="7bdxa6rIC_J7n2Tp7N9m-4" target="7bdxa6rIC_J7n2Tp7N9m-13">
          <mxGeometry width="50" height="50" relative="1" as="geometry">
            <mxPoint x="330" y="1691" as="sourcePoint" />
            <mxPoint x="506" y="1728" as="targetPoint" />
          </mxGeometry>
        </mxCell>
        <mxCell id="7bdxa6rIC_J7n2Tp7N9m-46" value="" style="endArrow=open;endSize=12;dashed=1;html=1;rounded=0;entryX=1;entryY=0.5;entryDx=0;entryDy=0;exitX=0;exitY=0.5;exitDx=0;exitDy=0;" edge="1" parent="1" source="7bdxa6rIC_J7n2Tp7N9m-20" target="7bdxa6rIC_J7n2Tp7N9m-17">
          <mxGeometry width="160" relative="1" as="geometry">
            <mxPoint x="770" y="1405" as="sourcePoint" />
            <mxPoint x="650" y="1405" as="targetPoint" />
          </mxGeometry>
        </mxCell>
        <mxCell id="7bdxa6rIC_J7n2Tp7N9m-47" value="&amp;lt;&amp;lt;include&amp;gt;&amp;gt;" style="edgeLabel;html=1;align=center;verticalAlign=middle;resizable=0;points=[];rotation=-45;" vertex="1" connectable="0" parent="7bdxa6rIC_J7n2Tp7N9m-46">
          <mxGeometry x="0.0085" y="2" relative="1" as="geometry">
            <mxPoint y="-2" as="offset" />
          </mxGeometry>
        </mxCell>
        <mxCell id="7bdxa6rIC_J7n2Tp7N9m-48" value="" style="endArrow=open;endSize=12;dashed=1;html=1;rounded=0;entryX=0;entryY=0.5;entryDx=0;entryDy=0;exitX=1;exitY=0.5;exitDx=0;exitDy=0;" edge="1" parent="1" source="7bdxa6rIC_J7n2Tp7N9m-16" target="7bdxa6rIC_J7n2Tp7N9m-19">
          <mxGeometry width="160" relative="1" as="geometry">
            <mxPoint x="780" y="1600" as="sourcePoint" />
            <mxPoint x="660" y="1700" as="targetPoint" />
          </mxGeometry>
        </mxCell>
        <mxCell id="7bdxa6rIC_J7n2Tp7N9m-49" value="&amp;lt;&amp;lt;include&amp;gt;&amp;gt;" style="edgeLabel;html=1;align=center;verticalAlign=middle;resizable=0;points=[];rotation=-45;" vertex="1" connectable="0" parent="7bdxa6rIC_J7n2Tp7N9m-48">
          <mxGeometry x="0.0085" y="2" relative="1" as="geometry">
            <mxPoint x="-9" y="7" as="offset" />
          </mxGeometry>
        </mxCell>
      </root>
    </mxGraphModel>
  </diagram>
</mxfile>
